<svg width="26" height="26" viewBox="0 0 26 26" fill="none" xmlns="http://www.w3.org/2000/svg">
<path d="M23.088 18.0964C21.4027 16.753 19.6924 15.9392 18.0278 17.2806L17.0338 18.0913C16.3066 18.6798 14.9545 21.4295 9.72663 15.8246C4.4999 10.2268 7.61025 9.3552 8.33857 8.77178L9.33798 7.96006C10.9939 6.61565 10.369 4.92322 9.17467 3.18107L8.45397 2.12583C7.25425 0.387743 5.94784 -0.753735 4.28761 0.588643L3.39054 1.31919C2.65677 1.81738 0.605704 3.43676 0.108179 6.51317C-0.490593 10.2045 1.39826 14.4315 5.72575 19.0694C10.0478 23.7094 14.2795 26.0401 18.288 25.9995C21.6193 25.966 23.6312 24.2999 24.2605 23.6942L25.1608 22.9626C26.8167 21.6213 25.7879 20.2556 24.1015 18.9091L23.088 18.0964Z" fill="white"/>
</svg>
