<svg width="1440" height="64" viewBox="0 0 1440 64" fill="none" xmlns="http://www.w3.org/2000/svg">
<path fill-rule="evenodd" clip-rule="evenodd" d="M1492 29.9733L1487.91 36.2178C1483.81 42.4622 1475.62 54.9511 1466.98 56.2C1458.79 57.4489 1450.6 47.4578 1442.41 37.4667C1434.22 27.4756 1426.03 17.4844 1417.38 21.2311C1409.19 24.9778 1401 42.4622 1392.81 49.9556C1384.62 57.4489 1375.98 54.9511 1367.79 48.7067C1359.6 42.4622 1351.41 32.4711 1343.22 28.7244C1335.03 24.9778 1326.38 27.4756 1318.19 23.7289C1310 19.9822 1301.81 9.99111 1293.62 14.9867C1284.98 19.9822 1276.79 39.9644 1268.6 41.2133C1260.41 42.4622 1252.22 24.9778 1244.03 18.7333C1235.38 12.4889 1227.19 17.4844 1219 26.2267C1210.81 34.9689 1202.62 47.4578 1193.98 54.9511C1185.79 62.4444 1177.6 64.9422 1169.4 63.6933C1161.21 62.4444 1153.03 57.4489 1144.38 47.4578C1136.19 37.4667 1128 22.48 1119.81 16.2356C1111.62 9.99112 1102.98 12.4889 1094.79 12.4889C1086.6 12.4889 1078.41 9.99111 1070.22 9.99111C1062.03 9.99111 1053.38 12.4889 1045.19 16.2356C1037 19.9822 1028.81 24.9778 1020.62 32.4711C1011.98 39.9644 1003.79 49.9556 995.595 54.9511C987.405 59.9467 979.215 59.9467 971.025 53.7022C962.38 47.4578 954.19 34.9689 950.095 28.7244L946 22.48V0H950.095C954.19 0 962.38 0 971.025 0C979.215 0 987.405 0 995.595 0C1003.79 0 1011.98 0 1020.62 0C1028.81 0 1037 0 1045.19 0C1053.38 0 1062.03 0 1070.22 0C1078.41 0 1086.6 0 1094.79 0C1102.98 0 1111.62 0 1119.81 0C1128 0 1136.19 0 1144.38 0C1153.03 0 1161.21 0 1169.4 0C1177.6 0 1185.79 0 1193.98 0C1202.62 0 1210.81 0 1219 0C1227.19 0 1235.38 0 1244.03 0C1252.22 0 1260.41 0 1268.6 0C1276.79 0 1284.98 0 1293.62 0C1301.81 0 1310 0 1318.19 0C1326.38 0 1335.03 0 1343.22 0C1351.41 0 1359.6 0 1367.79 0C1375.98 0 1384.62 0 1392.81 0C1401 0 1409.19 0 1417.38 0C1426.03 0 1434.22 0 1442.41 0C1450.6 0 1458.79 0 1466.98 0C1475.62 0 1483.81 0 1487.91 0H1492V29.9733Z" fill="#166BA1"/>
<path fill-rule="evenodd" clip-rule="evenodd" d="M477 29.9733L481.095 36.2178C485.19 42.4622 493.38 54.9511 502.025 56.2C510.215 57.4489 518.405 47.4578 526.595 37.4667C534.785 27.4756 542.975 17.4844 551.62 21.2311C559.81 24.9778 568 42.4622 576.19 49.9556C584.38 57.4489 593.025 54.9511 601.215 48.7067C609.405 42.4622 617.595 32.4711 625.785 28.7244C633.975 24.9778 642.62 27.4756 650.81 23.7289C659 19.9822 667.19 9.99111 675.38 14.9867C684.025 19.9822 692.215 39.9644 700.405 41.2133C708.595 42.4622 716.785 24.9778 724.975 18.7333C733.62 12.4889 741.81 17.4844 750 26.2267C758.19 34.9689 766.38 47.4578 775.025 54.9511C783.215 62.4444 791.405 64.9422 799.595 63.6933C807.785 62.4444 815.975 57.4489 824.62 47.4578C832.81 37.4667 841 22.48 849.19 16.2356C857.38 9.99112 866.025 12.4889 874.215 12.4889C882.405 12.4889 890.595 9.99111 898.785 9.99111C906.975 9.99111 915.62 12.4889 923.81 16.2356C932 19.9822 940.19 24.9778 948.38 32.4711C957.025 39.9644 965.215 49.9556 973.405 54.9511C981.595 59.9467 989.785 59.9467 997.975 53.7022C1006.62 47.4578 1014.81 34.9689 1018.9 28.7244L1023 22.48V0H1018.9C1014.81 0 1006.62 0 997.975 0C989.785 0 981.595 0 973.405 0C965.215 0 957.025 0 948.38 0C940.19 0 932 0 923.81 0C915.62 0 906.975 0 898.785 0C890.595 0 882.405 0 874.215 0C866.025 0 857.38 0 849.19 0C841 0 832.81 0 824.62 0C815.975 0 807.785 0 799.595 0C791.405 0 783.215 0 775.025 0C766.38 0 758.19 0 750 0C741.81 0 733.62 0 724.975 0C716.785 0 708.595 0 700.405 0C692.215 0 684.025 0 675.38 0C667.19 0 659 0 650.81 0C642.62 0 633.975 0 625.785 0C617.595 0 609.405 0 601.215 0C593.025 0 584.38 0 576.19 0C568 0 559.81 0 551.62 0C542.975 0 534.785 0 526.595 0C518.405 0 510.215 0 502.025 0C493.38 0 485.19 0 481.095 0H477V29.9733Z" fill="#166BA1"/>
<path fill-rule="evenodd" clip-rule="evenodd" d="M530 29.9733L525.905 36.2178C521.81 42.4622 513.62 54.9511 504.975 56.2C496.785 57.4489 488.595 47.4578 480.405 37.4667C472.215 27.4756 464.025 17.4844 455.38 21.2311C447.19 24.9778 439 42.4622 430.81 49.9556C422.62 57.4489 413.975 54.9511 405.785 48.7067C397.595 42.4622 389.405 32.4711 381.215 28.7244C373.025 24.9778 364.38 27.4756 356.19 23.7289C348 19.9822 339.81 9.99111 331.62 14.9867C322.975 19.9822 314.785 39.9644 306.595 41.2133C298.405 42.4622 290.215 24.9778 282.025 18.7333C273.38 12.4889 265.19 17.4844 257 26.2267C248.81 34.9689 240.62 47.4578 231.975 54.9511C223.785 62.4444 215.595 64.9422 207.405 63.6933C199.215 62.4444 191.025 57.4489 182.38 47.4578C174.19 37.4667 166 22.48 157.81 16.2356C149.62 9.99112 140.975 12.4889 132.785 12.4889C124.595 12.4889 116.405 9.99111 108.215 9.99111C100.025 9.99111 91.3801 12.4889 83.1901 16.2356C75.0001 19.9822 66.81 24.9778 58.62 32.4711C49.975 39.9644 41.785 49.9556 33.595 54.9511C25.405 59.9467 17.215 59.9467 9.02502 53.7022C0.380066 47.4578 -7.80994 34.9689 -11.905 28.7244L-16 22.48V0H-11.905C-7.80994 0 0.380066 0 9.02502 0C17.215 0 25.405 0 33.595 0C41.785 0 49.975 0 58.62 0C66.81 0 75.0001 0 83.1901 0C91.3801 0 100.025 0 108.215 0C116.405 0 124.595 0 132.785 0C140.975 0 149.62 0 157.81 0C166 0 174.19 0 182.38 0C191.025 0 199.215 0 207.405 0C215.595 0 223.785 0 231.975 0C240.62 0 248.81 0 257 0C265.19 0 273.38 0 282.025 0C290.215 0 298.405 0 306.595 0C314.785 0 322.975 0 331.62 0C339.81 0 348 0 356.19 0C364.38 0 373.025 0 381.215 0C389.405 0 397.595 0 405.785 0C413.975 0 422.62 0 430.81 0C439 0 447.19 0 455.38 0C464.025 0 472.215 0 480.405 0C488.595 0 496.785 0 504.975 0C513.62 0 521.81 0 525.905 0H530V29.9733Z" fill="#166BA1"/>
</svg>
