<svg width="305" height="324" viewBox="0 0 305 324" fill="none" xmlns="http://www.w3.org/2000/svg">
<path d="M273.003 132.939C273.003 137.676 277.04 141.512 282.001 141.512C286.972 141.512 291.01 137.676 291.01 132.939C291.01 128.207 286.972 124.365 282.001 124.365C277.04 124.365 273.003 128.207 273.003 132.939Z" fill="#166BA1"/>
<path d="M247.821 238.191C243.842 238.191 240.623 241.264 240.623 245.056C240.623 248.843 243.842 251.908 247.821 251.908C251.801 251.908 255.019 248.842 255.019 245.056C255.019 241.264 251.801 238.191 247.821 238.191Z" fill="#166BA1"/>
<path d="M236.309 262.784C228.153 262.784 221.544 269.082 221.544 276.853C221.544 284.618 228.153 290.916 236.309 290.916C244.464 290.916 251.074 284.618 251.074 276.853C251.075 269.082 244.464 262.784 236.309 262.784Z" fill="#166BA1"/>
<path d="M73.3019 280.705C79.4624 280.705 84.4565 275.946 84.4565 270.077C84.4565 264.207 79.4624 259.448 73.3019 259.448C67.1415 259.448 62.1474 264.207 62.1474 270.077C62.1474 275.946 67.1415 280.705 73.3019 280.705Z" fill="#166BA1"/>
<path d="M44.8671 227.222C41.6947 227.222 39.1112 229.673 39.1112 232.712C39.1112 235.735 41.6954 238.191 44.8671 238.191C48.0515 238.191 50.6236 235.734 50.6236 232.712C50.623 229.673 48.0508 227.222 44.8671 227.222Z" fill="#166BA1"/>
<path d="M18.6009 95.5681C22.7773 95.5681 26.1568 92.3417 26.1568 88.363C26.1568 84.3894 22.7773 81.1636 18.6009 81.1636C14.4253 81.1636 11.0451 84.3894 11.0451 88.363C11.0451 92.3417 14.4253 95.5681 18.6009 95.5681Z" fill="#166BA1"/>
<path d="M92.3702 61.9682C97.9302 61.9682 102.44 57.6706 102.44 52.3615C102.44 47.0695 97.9302 42.772 92.3702 42.772C86.8102 42.772 82.2993 47.0701 82.2993 52.3615C82.2993 57.67 86.8102 61.9682 92.3702 61.9682Z" fill="#166BA1"/>
<path d="M281.469 190.192C249.874 179.508 243.645 183.559 228.211 169.622C224.519 166.297 224.6 155.394 245.122 157.965C255.411 159.257 262.39 153.849 262.39 146.134C262.39 140.99 255.884 133.84 246.194 137.39C232.167 142.534 223.065 136.698 221.37 130.19C219.212 121.964 221.658 112.583 257.764 95.3978C302.014 74.3107 276.636 35.9404 241.879 72.0793C226.48 88.0826 219.212 94.7051 208.958 99.8491C199.753 104.46 188.714 99.6782 197.076 89.0505C200.318 84.9339 205.82 81.7581 207.331 76.7071C209.488 69.5077 203.132 62.8194 197.619 62.8194C192.105 62.8194 185.206 65.9029 183.049 73.6185C179.808 87.7637 171.548 87.0558 167.649 82.9721C160.186 75.1793 162.874 66.0895 164.154 52.0209C165.665 35.4957 175.932 -2.66641 144.429 0.147575C129.237 1.50522 124.75 15.1506 129.664 39.5401C135.777 69.8158 126.526 90.9466 116.652 95.2169C104.782 100.36 98.7608 98.4092 73.4752 81.8517C60.0367 73.0416 45.2011 80.7743 42.1682 91.106C39.4917 100.206 47.0363 111.204 58.3641 114.764C75.817 120.254 83.5575 121.529 91.6551 125.728C99.5682 129.844 100.56 139.824 92.6584 148.853C84.7453 157.889 64.3039 150.415 34.0811 148.359C-18.1626 144.809 -6.4198 199.874 42.71 183.68C70.7756 174.42 82.6452 176.474 87.5133 182.135C94.2273 189.945 89.6128 200.501 76.5314 208.02C34.7962 232.025 81.5842 261.843 98.8525 228.59C106.074 214.697 114.379 210.427 122.593 213.504C129.295 216.021 137.877 238.306 128.176 268.367C119.536 295.109 120.124 323.912 140.414 323.912C159.379 323.912 162.344 297 159.114 267.686C157.914 256.716 158.802 239.719 167.754 235.454C174.952 232.025 186.199 228.205 193.836 243.335C200.861 257.222 215.972 255.161 221.913 247.451C226.25 241.807 228.454 229.288 211.185 222.798C190.606 215.048 198.162 193.962 213.815 196.022C231.095 198.292 242.942 204.354 263.475 221.055C292.129 244.346 328.915 206.234 281.469 190.192Z" fill="#049FDC"/>
</svg>
