<svg width="36" height="36" viewBox="0 0 36 36" fill="none" xmlns="http://www.w3.org/2000/svg">
<path fill-rule="evenodd" clip-rule="evenodd" d="M7.71492 0C5.66931 -1.48991e-07 3.70744 0.802465 2.26069 2.23094C0.813952 3.65942 0.000785565 5.59696 0 7.61753V27.9387C0 29.9598 0.812819 31.8981 2.25965 33.3272C3.70648 34.7563 5.6688 35.5592 7.71492 35.5592H28.288C30.3337 35.5584 32.2952 34.7552 33.7414 33.3262C35.1876 31.8971 36 29.9593 36 27.9387V7.61753C35.9992 5.59747 35.1865 3.66037 33.7404 2.23198C32.2943 0.803583 30.3331 0.000775602 28.288 0H7.71492ZM30.5071 7.62923C30.5071 8.21134 30.273 8.7696 29.8563 9.18121C29.4396 9.59282 28.8744 9.82406 28.2851 9.82406C27.6958 9.82406 27.1306 9.59282 26.7139 9.18121C26.2971 8.7696 26.063 8.21134 26.063 7.62923C26.063 7.04713 26.2971 6.48886 26.7139 6.07725C27.1306 5.66564 27.6958 5.4344 28.2851 5.4344C28.8744 5.4344 29.4396 5.66564 29.8563 6.07725C30.273 6.48886 30.5071 7.04713 30.5071 7.62923ZM18.0044 11.6911C16.3701 11.6911 14.8026 12.3324 13.6469 13.474C12.4912 14.6155 11.842 16.1638 11.842 17.7781C11.842 19.3925 12.4912 20.9408 13.6469 22.0823C14.8026 23.2238 16.3701 23.8651 18.0044 23.8651C19.6388 23.8651 21.2063 23.2238 22.362 22.0823C23.5176 20.9408 24.1669 19.3925 24.1669 17.7781C24.1669 16.1638 23.5176 14.6155 22.362 13.474C21.2063 12.3324 19.6388 11.6911 18.0044 11.6911ZM8.87631 17.7781C8.87631 15.3876 9.83771 13.095 11.549 11.4047C13.2603 9.71432 15.5813 8.76469 18.0015 8.76469C20.4216 8.76469 22.7427 9.71432 24.454 11.4047C26.1653 13.095 27.1267 15.3876 27.1267 17.7781C27.1267 20.1686 26.1653 22.4612 24.454 24.1516C22.7427 25.8419 20.4216 26.7916 18.0015 26.7916C15.5813 26.7916 13.2603 25.8419 11.549 24.1516C9.83771 22.4612 8.87631 20.1686 8.87631 17.7781Z" fill="white"/>
</svg>
