<svg width="148" height="60" viewBox="0 0 148 60" fill="none" xmlns="http://www.w3.org/2000/svg">
<path d="M140.237 42.3901C140.123 42.4104 140.009 42.4308 139.721 42.4807C139.414 42.5319 139.281 42.5534 139.148 42.575C139.048 42.5366 138.948 42.4983 138.667 42.4781C137.763 42.5723 137.04 42.6484 136.318 42.7244C136.204 42.7414 136.09 42.7584 135.786 42.7767C134.876 42.8581 134.157 42.9382 133.438 43.0183C133.295 43.0596 133.152 43.1009 132.857 43.2101C132.249 43.2748 131.792 43.2716 131.335 43.2684C131.218 43.2887 131.102 43.3089 130.854 43.241C130.383 43.141 130.042 43.1291 129.702 43.1173C129.978 43.3877 130.254 43.6581 130.53 43.9285C130.924 44.3269 131.375 44.6711 131.702 45.1341C132.655 46.481 133.697 46.7977 135.164 46.1741C136.079 45.7848 137.183 45.9767 138.203 45.953C139.4 45.9252 140.598 45.9465 141.82 45.9465C141.977 48.1811 140.107 50.2029 138.112 49.8075C136.91 49.5692 135.665 49.6384 134.45 49.4689C133.69 49.3631 132.948 49.0791 132.203 48.8569C131.889 48.7636 131.501 48.417 131.291 48.5354C128.099 50.3394 124.678 49.5921 121.346 49.8438C120.236 49.9277 118.991 49.9434 118.071 50.5417C116.666 51.4555 115.022 51.6219 113.8 51.3259C111.292 50.7188 108.942 51.6196 106.519 51.5213C104.276 51.4304 102.022 51.7879 99.7724 51.7969C98.1041 51.8035 96.4359 51.5431 94.7655 51.4603C94.3996 51.4422 94.027 51.7577 93.6532 51.7725C92.7113 51.8098 91.7668 51.773 90.8238 51.7452C90.4497 51.7342 90.0772 51.6391 89.7033 51.6331C88.118 51.6074 86.5325 51.5854 84.9472 51.5923C83.7599 51.5974 82.5699 51.5969 81.3862 51.6893C78.1042 51.9456 74.8269 52.2874 71.5439 52.5233C68.3295 52.7543 65.1102 52.8932 61.8934 53.0787C58.7954 53.2574 55.6972 53.4304 52.6003 53.6315C50.4033 53.7741 48.1856 54.2695 46.0176 54.0536C42.6899 53.7222 39.6277 54.9699 36.4596 55.6011C36.1732 55.6582 35.7803 55.7986 35.6588 56.0478C34.1461 59.1511 31.1761 58.5989 28.89 59.7362C28.2771 60.0411 27.4917 58.9102 27.7538 58.0638C28.1068 56.9238 27.7538 56.4803 26.8426 56.248C26.4418 56.1458 26.0971 55.7698 25.6986 55.6232C25.1231 55.4116 24.3285 54.9392 23.9678 55.2058C22.8967 55.9976 22.2234 55.7914 21.6742 54.4301C20.5469 56.2894 17.7365 53.713 17.3671 57.1232C16.3822 56.3236 15.5189 55.6227 14.5601 54.8442C14.2773 53.0483 13.9644 51.0613 13.6219 48.8861C13.3427 48.9986 12.9885 49.0872 12.6789 49.2755C11.4902 49.9984 10.9819 49.8122 10.1824 48.4319C9.87338 47.8984 9.44605 47.4583 9.30191 47.272C8.54405 47.8452 8.09629 48.4666 7.67285 48.4448C6.82101 48.4009 5.62285 48.3285 5.20677 47.6954C4.0275 45.901 5.99104 45.3497 6.61209 44.4233C5.94634 44.0478 5.3529 43.4003 4.89381 43.5111C3.35493 43.8828 2.23892 42.7328 0.936651 42.295C0.584087 42.1765 0.0602487 41.8163 0.0314006 41.513C-0.0319986 40.8464 -0.0252019 39.7512 0.300383 39.531C1.3616 38.8129 2.57886 38.4092 4.02872 37.7519C3.91674 37.3679 3.69066 36.5925 3.51969 36.0062C2.52979 36.3363 1.78741 36.6278 1.0259 36.8106C0.803038 36.8641 0.525766 36.6087 0.273434 36.4948C0.448393 36.2714 0.595248 36 0.803534 35.8333C1.45055 35.3154 2.13835 34.8642 2.76343 34.3145C2.85765 34.2316 2.77135 33.5575 2.65015 33.5006C1.48923 32.9555 2.4575 32.3486 2.39539 31.7859C2.49568 31.7268 2.59598 31.6677 2.69628 31.6086C3.29554 32.194 3.8948 32.7793 4.52616 33.396C7.41334 31.9987 7.31753 32.4004 6.81786 29.6578C6.6723 29.9741 6.52674 30.2904 6.34726 30.6804C6.12142 30.4782 5.90078 30.2807 5.77003 30.1636C5.31879 30.4645 4.94194 30.7158 4.56509 30.9671C4.28014 30.1522 3.90506 29.3579 3.76284 28.5104C3.71768 28.2413 4.24429 27.6557 4.59496 27.5225C5.22431 27.2835 5.91854 27.2773 6.51823 27.056C7.04451 26.8175 7.5741 26.5883 8.09523 26.3354C8.27223 26.2495 8.42792 26.1037 8.59334 25.9853C8.43605 25.7169 8.32169 25.2822 8.11397 25.2091C7.25844 24.9081 6.36685 24.7485 5.50652 24.463C5.2916 24.3917 5.14379 24.0447 4.96513 23.8245C5.60116 23.1634 6.17496 22.3822 6.89135 21.8763C7.55994 21.4041 8.42497 21.2765 8.70642 20.0156C7.61022 20.3832 6.80166 20.6544 5.9089 20.9538C6.03392 18.2226 6.03391 18.2224 8.00678 18.0158C8.09325 18.0067 8.20151 18.044 8.26414 17.9963C10.4121 16.3588 12.9736 16.3702 15.4236 15.5412C15.3697 14.9744 15.314 14.3889 15.2486 13.7015C15.5465 13.6081 15.8456 13.5717 16.0894 13.4167C16.2392 13.3215 16.4124 13.0126 16.3784 12.8587C16.3419 12.6933 16.0702 12.4809 15.9102 12.4907C15.1887 12.5347 14.4605 12.5907 13.7527 12.751C11.284 13.31 8.81557 13.8767 6.36227 14.5197C5.41194 14.7688 3.92324 13.6765 3.6858 12.5429C3.47471 11.5351 3.08407 10.5786 2.94044 9.51442C3.63162 9.53226 4.15504 9.63507 4.74659 9.75127C5.31173 8.46116 6.42959 8.91256 7.42061 8.8817C7.74363 8.87164 8.0707 8.92573 8.38994 8.8856C9.10034 8.79628 9.80432 8.62545 10.5158 8.56238C11.4637 8.47836 12.7106 8.88733 13.3006 8.32661C14.2844 7.39156 14.9423 7.09507 15.8224 8.31097C16.5947 7.39971 17.3327 6.5162 17.9647 8.35481C18.3288 8.11005 18.8495 7.65795 18.9127 7.7328C19.8163 8.80197 20.7869 7.84126 21.6857 7.82905C22.4949 7.81807 23.2982 7.2192 24.104 6.87962C24.7231 6.89859 25.7168 7.62127 26.1905 7.29976C27.6711 6.29488 29.2353 6.39094 30.7986 6.21449C32.2618 6.04932 33.8349 6.66032 35.1273 5.21454C35.4126 4.89534 36.0875 5.05071 36.636 5.0592C37.4965 5.13085 38.3038 5.13085 38.9889 5.13085C38.9889 4.63814 38.9889 4.14481 38.9889 3.37148C38.1603 3.61039 37.3695 3.83843 36.5093 3.97868C36.2363 3.90155 36.0327 3.91219 35.7915 3.86547C35.6128 3.85377 35.4717 3.89943 35.2366 3.95392C35.0199 3.93493 34.8972 3.90709 34.769 3.75489C34.7212 3.38754 34.6789 3.14455 34.6367 2.90157C35.1372 2.81757 35.6377 2.73357 36.2855 2.71038C36.5961 2.78479 36.7594 2.79838 36.9227 2.81197C38.7636 2.68303 40.6065 2.58384 42.4449 2.41639C44.1285 2.26303 45.8072 2.03591 47.6238 1.91113C47.9688 1.98557 48.178 1.99019 48.3872 1.9948C49.9741 1.91757 51.5621 1.86186 53.1476 1.75591C54.2941 1.67929 55.4373 1.53596 56.743 1.37068C57.0318 1.24522 57.1597 1.17147 57.2877 1.09772C58.7484 1.01244 60.2189 0.765141 61.6673 0.884075C63.3683 1.02375 65.0022 1.12582 66.514 0.0027771C66.5576 -0.0295792 66.7579 0.225662 66.954 0.53685C66.9392 1.26715 66.8554 1.8074 66.7716 2.34766C65.8716 2.5683 64.9767 2.82555 64.0697 2.99529C63.5588 3.0909 63.0281 3.04222 62.3107 3.07681C61.8183 3.25962 61.5215 3.42417 61.2247 3.58872C60.6833 3.58919 60.1418 3.58967 59.4346 3.55529C59.051 3.5525 58.8331 3.58456 58.6152 3.61663C57.9786 3.65239 57.342 3.68816 56.5208 3.82292C55.8668 4.06995 55.3974 4.21798 54.928 4.366C54.5586 4.43154 54.1892 4.49708 53.6211 4.58814C53.0525 4.62437 52.6825 4.63509 52.3126 4.64582C52.1192 4.59443 51.9259 4.54305 51.5677 4.43085C50.7379 4.49814 50.0729 4.62624 49.4079 4.75435C49.4079 4.75435 49.4334 4.77171 49.3368 4.78645C48.9594 4.99927 48.6788 5.19735 48.3982 5.39542C48.3552 5.41892 48.3123 5.44242 48.1222 5.52184C47.5949 5.63218 47.2147 5.68661 46.8345 5.74103C46.4376 5.76009 46.0407 5.77915 45.4474 5.87873C44.5889 6.08718 43.927 6.2151 43.265 6.34301C43.2787 6.5135 43.2924 6.68398 43.3061 6.85446C44.0448 6.77979 44.7836 6.70512 45.5224 6.63045C46.4898 6.63824 47.4572 6.64603 48.5987 6.71631C48.9171 6.66716 49.0615 6.55553 49.2059 6.44391C49.9014 6.43878 50.5968 6.43364 51.4127 6.59568C51.5359 6.92704 51.5387 7.09125 51.5414 7.25546C51.0739 7.43265 50.6065 7.60984 49.991 7.71381C49.4559 7.56892 49.0688 7.49724 48.6817 7.42556C47.9638 7.72911 47.2458 8.03267 46.3864 8.20059C46.0028 8.09244 45.7608 8.11991 45.5188 8.14738C45.086 8.38437 44.6532 8.62136 44.0887 8.94717C43.736 9.23044 43.5151 9.42489 43.2942 9.61934C43.3664 9.94756 43.4386 10.2758 43.6716 10.7154C44.2281 10.82 44.6239 10.8132 45.0197 10.8064C45.559 11.0746 46.0984 11.3428 46.7436 11.7519C47.0235 11.8152 47.1977 11.7376 47.3718 11.66C47.3718 11.66 47.4375 11.5288 47.5943 11.5131C47.9448 11.5045 48.1385 11.5117 48.3321 11.519C48.5387 11.6399 48.7452 11.7608 49.151 11.8358C50.0756 11.6962 50.8011 11.6023 51.5266 11.5085C52.6701 11.3421 53.8135 11.1757 55.0848 11.1189C55.3895 11.1802 55.5666 11.1318 55.7436 11.0835C56.2743 11.0409 56.8049 10.9984 57.5001 11.0147C57.8622 11.1273 58.0598 11.1813 58.2575 11.2352C58.7685 11.0748 59.2671 10.3646 59.806 11.2029C59.8565 11.2814 60.0554 11.2599 60.1796 11.2386C61.0769 11.0842 61.99 10.9983 62.8659 10.7411C66.0993 9.79127 69.419 9.99606 72.6958 9.83805C74.1004 9.77032 75.3921 9.52677 76.7449 9.18507C78.2041 8.81649 79.7549 8.94506 81.2653 8.8474C81.8721 8.80817 82.5225 8.5517 83.0757 8.72701C84.7921 9.27101 86.6446 7.77487 88.2816 9.24624C88.3901 9.34375 88.6834 9.36277 88.7648 9.2691C89.8774 7.98803 90.6639 9.30303 91.4457 9.81755C92.7417 10.6704 93.2962 10.6441 94.0426 9.24959C94.2136 9.69465 94.381 10.1305 94.6375 10.7982C94.8775 10.3025 95.0224 10.003 95.1901 9.65679C96.7819 9.92557 98.4268 10.5669 99.9881 10.3577C101.363 10.1734 102.714 10.0565 104.062 9.92961C105.745 9.7711 107.109 10.5268 108.629 10.6698C109.236 10.7269 109.871 10.7414 110.461 10.598C111.205 10.4172 111.917 10.0548 112.494 9.82883C113.286 10.0439 114.023 10.2263 114.752 10.4485C115.226 10.5931 115.681 10.9111 116.156 10.9463C116.939 11.0044 117.733 10.9215 118.518 10.846C118.826 10.8164 119.169 10.7201 119.414 10.5183C119.617 10.3514 119.844 9.93864 119.793 9.71945C119.742 9.49756 119.358 9.23528 119.127 9.24371C118.481 9.26721 117.841 9.48756 117.196 9.50826C116.36 9.53506 115.754 9.14732 115.803 7.76407C117.071 7.91123 118.353 8.06227 119.635 8.20596C119.803 8.22485 119.982 8.24105 120.144 8.19973C122.899 7.5003 125.631 7.92577 128.364 8.40604C129.408 8.58942 130.47 8.64734 131.508 8.8617C132.376 9.0408 132.374 9.56042 131.593 10.2837C131.499 10.5717 131.547 10.7414 131.594 10.9111C131.969 10.9933 132.344 11.0756 132.626 11.1376C132.818 11.761 132.984 12.2989 133.049 12.9759C132.339 13.1149 131.729 13.1149 130.994 13.1149C131.255 12.7027 131.39 12.4885 131.715 11.9752C128.843 11.9752 126.216 11.9752 123.59 11.9752C123.58 12.2123 123.57 12.4495 123.56 12.6867C124.712 12.787 125.865 12.8871 127.018 12.9877C127.336 13.0155 127.849 12.9115 127.941 13.0946C128.533 14.2782 129.446 14.0127 130.348 14.0133C131.022 14.0137 131.695 14.1959 132.369 14.2972C133.359 14.488 134.35 14.6789 135.34 14.8697C135.287 14.9566 135.234 15.0436 135.182 15.1305C135.5 15.5054 135.818 15.8802 136.219 16.4062C136.294 16.6803 136.287 16.8032 136.28 16.9261C135.816 16.8423 135.353 16.7176 134.886 16.6872C134.473 16.6603 134.055 16.7386 133.598 16.9547C134.599 17.8827 136.213 18.139 135.73 20.1581C133.63 19.9536 131.58 19.754 129.342 19.536C128.77 20.7428 127.526 20.169 126.46 20.2056C125.429 20.2411 124.633 20.3093 124.253 21.7523C124.154 22.1291 123.022 22.1351 122.074 22.3894C122.12 22.7986 121.989 23.7953 122.351 24.2285C122.682 24.623 123.567 24.5464 124.175 24.4328C126.281 24.0386 128.28 23.6331 130.467 24.5369C132.098 25.2105 134.021 24.8956 135.81 25.074C136.731 25.1658 137.64 25.4171 138.561 25.5043C138.871 25.5337 139.202 25.2795 139.674 25.2532C139.88 25.6308 139.934 25.9103 139.988 26.1898C139.947 26.3428 139.906 26.4959 139.715 26.7254C139.471 27.0046 139.376 27.2073 139.282 27.4101C139.089 27.7195 138.895 28.0289 138.581 28.4437C138.212 28.6997 137.964 28.8504 137.352 29.2208C137.965 29.2208 138.183 29.2208 138.401 29.2208C138.517 29.2506 138.633 29.2803 138.904 29.3068C139.2 29.3396 139.342 29.3757 139.484 29.4117C139.484 29.4117 139.49 29.4754 139.53 29.5939C139.596 29.8643 139.622 30.0163 139.647 30.1682C139.376 30.3748 139.104 30.5813 138.68 30.8575C138.321 31.0743 138.114 31.2214 137.907 31.3686C137.824 31.6167 137.742 31.8648 137.572 32.2389C137.358 32.4566 137.231 32.5483 137.104 32.6399C136.808 32.7253 136.513 32.8107 136.069 32.9521C135.792 33.0907 135.664 33.1733 135.536 33.2559C135.166 33.2419 134.796 33.228 134.253 33.1742C133.78 33.1709 133.479 33.2075 133.178 33.244C132.809 33.3673 132.439 33.4906 131.882 33.6216C131.566 33.6599 131.437 33.6905 131.309 33.7211C131.199 33.677 131.088 33.6329 130.819 33.501C130.023 33.2907 129.364 32.9938 128.755 33.0977C128.218 33.1895 127.622 33.6174 127.271 34.1096C127.049 34.42 127.23 35.1214 127.23 35.6474C127.822 35.2897 128.016 34.7221 128.339 34.5919C129.042 34.3084 129.812 34.2476 130.555 34.0959C131.241 34.5482 131.928 35.0006 132.755 35.546C134.386 34.3176 135.919 35.2933 137.624 36.2773C138.858 36.9899 140.397 36.9825 141.901 37.3185C141.901 37.584 141.901 37.9467 141.901 38.0539C143.488 38.8701 144.914 39.6034 145.953 40.1374C146.616 41.123 147.069 41.7979 147.581 42.664C147.638 43.0064 147.637 43.1575 147.636 43.3086C147.583 43.3246 147.529 43.3407 147.314 43.3775C146.768 43.582 146.383 43.7657 145.999 43.9494C145.373 43.8606 144.747 43.7719 144.039 43.5146C143.737 43.404 143.517 43.462 143.296 43.5199C143.296 43.5199 143.197 43.5733 143.061 43.6463C142.598 43.5101 142.271 43.3007 141.944 43.0914C141.929 42.9877 141.915 42.8839 141.844 42.6087C141.27 42.4215 140.753 42.4058 140.237 42.3901Z" fill="#7429E7"/>
</svg>
