<svg width="32" height="21" viewBox="0 0 32 21" fill="none" xmlns="http://www.w3.org/2000/svg">
<path fill-rule="evenodd" clip-rule="evenodd" d="M0 1.9C0 1.50218 0.158035 1.12065 0.43934 0.839341C0.720644 0.558037 1.10218 0.400002 1.5 0.400002H30.5C30.8978 0.400002 31.2794 0.558037 31.5607 0.839341C31.842 1.12065 32 1.50218 32 1.9C32 2.29783 31.842 2.67936 31.5607 2.96066C31.2794 3.24197 30.8978 3.4 30.5 3.4H1.5C1.10218 3.4 0.720644 3.24197 0.43934 2.96066C0.158035 2.67936 0 2.29783 0 1.9ZM0 10.4C0 10.0022 0.158035 9.62065 0.43934 9.33934C0.720644 9.05804 1.10218 8.9 1.5 8.9H30.5C30.8978 8.9 31.2794 9.05804 31.5607 9.33934C31.842 9.62065 32 10.0022 32 10.4C32 10.7978 31.842 11.1794 31.5607 11.4607C31.2794 11.742 30.8978 11.9 30.5 11.9H1.5C1.10218 11.9 0.720644 11.742 0.43934 11.4607C0.158035 11.1794 0 10.7978 0 10.4ZM1.5 17.4C1.10218 17.4 0.720644 17.558 0.43934 17.8393C0.158035 18.1206 0 18.5022 0 18.9C0 19.2978 0.158035 19.6794 0.43934 19.9607C0.720644 20.242 1.10218 20.4 1.5 20.4H30.5C30.8978 20.4 31.2794 20.242 31.5607 19.9607C31.842 19.6794 32 19.2978 32 18.9C32 18.5022 31.842 18.1206 31.5607 17.8393C31.2794 17.558 30.8978 17.4 30.5 17.4H1.5Z" fill="white"/>
</svg>
